<svg width="2" height="145" viewBox="0 0 2 145" fill="none" xmlns="http://www.w3.org/2000/svg">
<path d="M0.783496 2.00271C0.783496 2.1684 0.917811 2.30271 1.0835 2.30271C1.24918 2.30271 1.3835 2.1684 1.3835 2.00271L0.783496 2.00271ZM1.3835 6.00814C1.3835 5.84246 1.24918 5.70814 1.0835 5.70814C0.917811 5.70814 0.783496 5.84246 0.783496 6.00814L1.3835 6.00814ZM0.783497 10.0136C0.783497 10.1793 0.917811 10.3136 1.0835 10.3136C1.24918 10.3136 1.3835 10.1793 1.3835 10.0136L0.783497 10.0136ZM1.3835 14.019C1.3835 13.8533 1.24918 13.719 1.0835 13.719C0.917811 13.719 0.783497 13.8533 0.783497 14.019L1.3835 14.019ZM0.783497 18.0244C0.783497 18.1901 0.917811 18.3244 1.0835 18.3244C1.24918 18.3244 1.3835 18.1901 1.3835 18.0244L0.783497 18.0244ZM1.3835 22.0299C1.3835 21.8642 1.24918 21.7299 1.0835 21.7299C0.917812 21.7299 0.783497 21.8642 0.783497 22.0299L1.3835 22.0299ZM0.783497 26.0353C0.783497 26.201 0.917812 26.3353 1.0835 26.3353C1.24918 26.3353 1.3835 26.201 1.3835 26.0353L0.783497 26.0353ZM1.3835 30.0407C1.3835 29.875 1.24918 29.7407 1.0835 29.7407C0.917812 29.7407 0.783497 29.875 0.783497 30.0407L1.3835 30.0407ZM0.783498 34.0462C0.783498 34.2118 0.917812 34.3462 1.0835 34.3462C1.24918 34.3462 1.3835 34.2118 1.3835 34.0462L0.783498 34.0462ZM1.3835 38.0516C1.3835 37.8859 1.24918 37.7516 1.0835 37.7516C0.917812 37.7516 0.783498 37.8859 0.783498 38.0516L1.3835 38.0516ZM0.783498 42.057C0.783498 42.2227 0.917813 42.357 1.0835 42.357C1.24918 42.357 1.3835 42.2227 1.3835 42.057L0.783498 42.057ZM1.3835 46.0624C1.3835 45.8968 1.24918 45.7624 1.0835 45.7624C0.917813 45.7624 0.783498 45.8968 0.783498 46.0624L1.3835 46.0624ZM0.783498 50.0679C0.783498 50.2336 0.917813 50.3679 1.0835 50.3679C1.24918 50.3679 1.3835 50.2336 1.3835 50.0679L0.783498 50.0679ZM1.3835 54.0733C1.3835 53.9076 1.24918 53.7733 1.0835 53.7733C0.917813 53.7733 0.783498 53.9076 0.783498 54.0733L1.3835 54.0733ZM0.783499 58.0787C0.783499 58.2444 0.917813 58.3787 1.0835 58.3787C1.24918 58.3787 1.3835 58.2444 1.3835 58.0787L0.783499 58.0787ZM1.3835 62.0842C1.3835 61.9185 1.24918 61.7842 1.0835 61.7842C0.917813 61.7842 0.783499 61.9185 0.783499 62.0842L1.3835 62.0842ZM0.783499 66.0896C0.783499 66.2553 0.917814 66.3896 1.0835 66.3896C1.24918 66.3896 1.3835 66.2553 1.3835 66.0896L0.783499 66.0896ZM1.3835 70.095C1.3835 69.9293 1.24918 69.795 1.0835 69.795C0.917814 69.795 0.783499 69.9293 0.783499 70.095L1.3835 70.095ZM0.783499 74.1004C0.783499 74.2661 0.917814 74.4004 1.0835 74.4004C1.24918 74.4004 1.3835 74.2661 1.3835 74.1004L0.783499 74.1004ZM1.3835 78.1059C1.3835 77.9402 1.24918 77.8059 1.0835 77.8059C0.917814 77.8059 0.783499 77.9402 0.783499 78.1059L1.3835 78.1059ZM0.7835 82.1113C0.7835 82.277 0.917814 82.4113 1.0835 82.4113C1.24919 82.4113 1.3835 82.277 1.3835 82.1113L0.7835 82.1113ZM1.3835 86.1167C1.3835 85.9511 1.24919 85.8167 1.0835 85.8167C0.917814 85.8167 0.7835 85.9511 0.7835 86.1167L1.3835 86.1167ZM0.7835 90.1222C0.7835 90.2879 0.917815 90.4222 1.0835 90.4222C1.24919 90.4222 1.3835 90.2879 1.3835 90.1222L0.7835 90.1222ZM1.3835 94.1276C1.3835 93.9619 1.24919 93.8276 1.0835 93.8276C0.917815 93.8276 0.7835 93.9619 0.7835 94.1276L1.3835 94.1276ZM0.7835 98.133C0.7835 98.2987 0.917815 98.433 1.0835 98.433C1.24919 98.433 1.3835 98.2987 1.3835 98.133L0.7835 98.133ZM1.3835 102.138C1.3835 101.973 1.24919 101.838 1.0835 101.838C0.917815 101.838 0.783501 101.973 0.783501 102.138L1.3835 102.138ZM0.783501 106.144C0.783501 106.31 0.917815 106.444 1.0835 106.444C1.24919 106.444 1.3835 106.31 1.3835 106.144L0.783501 106.144ZM1.3835 110.149C1.3835 109.984 1.24919 109.849 1.0835 109.849C0.917815 109.849 0.783501 109.984 0.783501 110.149L1.3835 110.149ZM0.783501 114.155C0.783501 114.32 0.917816 114.455 1.0835 114.455C1.24919 114.455 1.3835 114.32 1.3835 114.155L0.783501 114.155ZM1.3835 118.16C1.3835 117.995 1.24919 117.86 1.0835 117.86C0.917816 117.86 0.783501 117.995 0.783501 118.16L1.3835 118.16ZM0.783501 122.166C0.783501 122.331 0.917816 122.466 1.0835 122.466C1.24919 122.466 1.3835 122.331 1.3835 122.166L0.783501 122.166ZM1.3835 126.171C1.3835 126.005 1.24919 125.871 1.0835 125.871C0.917816 125.871 0.783502 126.005 0.783502 126.171L1.3835 126.171ZM0.783502 130.176C0.783502 130.342 0.917816 130.477 1.0835 130.477C1.24919 130.477 1.3835 130.342 1.3835 130.176L0.783502 130.176ZM1.3835 134.182C1.3835 134.016 1.24919 133.882 1.0835 133.882C0.917817 133.882 0.783502 134.016 0.783502 134.182L1.3835 134.182ZM0.783502 138.187C0.783502 138.353 0.917817 138.487 1.0835 138.487C1.24919 138.487 1.3835 138.353 1.3835 138.187L0.783502 138.187ZM1.3835 142.193C1.3835 142.027 1.24919 141.893 1.0835 141.893C0.917817 141.893 0.783502 142.027 0.783502 142.193L1.3835 142.193ZM0.783496 1.31134e-08L0.783496 2.00271L1.3835 2.00271L1.3835 -1.31134e-08L0.783496 1.31134e-08ZM0.783496 6.00814L0.783497 10.0136L1.3835 10.0136L1.3835 6.00814L0.783496 6.00814ZM0.783497 14.019L0.783497 18.0244L1.3835 18.0244L1.3835 14.019L0.783497 14.019ZM0.783497 22.0299L0.783497 26.0353L1.3835 26.0353L1.3835 22.0299L0.783497 22.0299ZM0.783497 30.0407L0.783498 34.0462L1.3835 34.0462L1.3835 30.0407L0.783497 30.0407ZM0.783498 38.0516L0.783498 42.057L1.3835 42.057L1.3835 38.0516L0.783498 38.0516ZM0.783498 46.0624L0.783498 50.0679L1.3835 50.0679L1.3835 46.0624L0.783498 46.0624ZM0.783498 54.0733L0.783499 58.0787L1.3835 58.0787L1.3835 54.0733L0.783498 54.0733ZM0.783499 62.0842L0.783499 66.0896L1.3835 66.0896L1.3835 62.0842L0.783499 62.0842ZM0.783499 70.095L0.783499 74.1004L1.3835 74.1004L1.3835 70.095L0.783499 70.095ZM0.783499 78.1059L0.7835 82.1113L1.3835 82.1113L1.3835 78.1059L0.783499 78.1059ZM0.7835 86.1167L0.7835 90.1222L1.3835 90.1222L1.3835 86.1167L0.7835 86.1167ZM0.7835 94.1276L0.7835 98.133L1.3835 98.133L1.3835 94.1276L0.7835 94.1276ZM0.783501 102.138L0.783501 106.144L1.3835 106.144L1.3835 102.138L0.783501 102.138ZM0.783501 110.149L0.783501 114.155L1.3835 114.155L1.3835 110.149L0.783501 110.149ZM0.783501 118.16L0.783501 122.166L1.3835 122.166L1.3835 118.16L0.783501 118.16ZM0.783502 126.171L0.783502 130.176L1.3835 130.176L1.3835 126.171L0.783502 126.171ZM0.783502 134.182L0.783502 138.187L1.3835 138.187L1.3835 134.182L0.783502 134.182ZM0.783502 142.193L0.783502 144.195L1.3835 144.195L1.3835 142.193L0.783502 142.193Z" fill="#575757"/>
</svg>
